<svg width="133" height="235" viewBox="0 0 133 235" fill="none" xmlns="http://www.w3.org/2000/svg">
<path d="M42.4548 26.3705C73.0436 26.8523 199.072 27.1143 230.595 26.7136C232.466 26.6901 232.609 23.5 230.671 23.5C198.176 23.54 85.8452 22.9207 42.5159 23.8525C40.4303 23.8948 40.9967 26.347 42.4548 26.3705Z" fill="white"/>
<path d="M79.9904 117.988C82.1008 118.899 84.3431 119.467 86.6326 119.671C86.4129 122.362 86.442 125.068 86.7196 127.753C86.7498 127.898 86.8303 128.028 86.9469 128.119C87.0634 128.21 87.2085 128.257 87.3565 128.252C87.5044 128.247 87.6457 128.189 87.7554 128.09C87.865 127.99 87.936 127.855 87.9557 127.708C88.1754 125.872 87.6619 123.883 88.0321 119.762C90.7804 119.836 92.0682 118.984 94.4828 118.656C100.487 117.836 106.259 115.788 111.437 112.64C111.591 112.522 111.692 112.349 111.719 112.156C111.745 111.964 111.695 111.77 111.579 111.614C106.266 105.126 102.18 97.7237 99.5224 89.77C99.2087 88.8711 98.1688 87.6632 98.1641 89.2107C98.1512 93.1775 98.6141 97.1419 98.6141 101.115C98.6141 108.324 98.4226 116.037 91.3984 117.849C87.0909 118.957 83.0818 117.552 80.4157 116.84C79.7824 116.665 79.3124 117.66 79.9904 117.988Z" fill="white"/>
<path d="M90.1581 102.561C90.7738 103.754 88.6753 103.613 87.4169 103.673C87.258 103.686 87.109 103.755 86.9962 103.868C86.8834 103.98 86.8142 104.129 86.8008 104.288C86.7874 104.447 86.8308 104.605 86.9231 104.735C87.0154 104.865 87.1508 104.958 87.3052 104.998C88.1374 105.11 88.9832 105.062 89.7974 104.857C91.2521 104.555 92.3624 104.019 91.5705 102.39C91.0584 101.289 90.4768 100.223 89.8291 99.197C89.7497 99.0728 89.6277 98.9817 89.486 98.9407C89.3443 98.8997 89.1925 98.9117 89.059 98.9745C88.9255 99.0372 88.8194 99.1463 88.7604 99.2816C88.7015 99.4168 88.6938 99.5688 88.7387 99.7093C89.139 100.694 89.6135 101.648 90.1581 102.561Z" fill="white"/>
<path d="M82.1859 97.968C82.1718 98.7223 82.1154 99.8656 83.227 99.895C84.1223 99.9197 84.3738 99.1277 84.3691 98.069C84.3644 96.162 82.2317 95.6309 82.1859 97.968Z" fill="white"/>
<path d="M92.6684 97.9198C92.6872 98.6413 92.9938 99.3216 93.8269 99.2875C94.5225 99.2593 94.7728 98.3193 94.7528 97.7001C94.7234 96.786 94.4356 96.3195 93.8575 96.1926C92.9703 95.9975 92.6437 97.0151 92.6684 97.9198Z" fill="white"/>
<path d="M93.4729 92.5384C93.9384 92.4846 94.4097 92.5619 94.8336 92.7616C95.2575 92.9614 95.6173 93.2755 95.8722 93.6687C96.5161 94.6205 97.2047 93.8391 96.9603 93.2751C96.6465 92.5894 96.1211 92.0224 95.4612 91.6573C94.8014 91.2923 94.0419 91.1485 93.2943 91.247C93.1272 91.2755 92.9778 91.3678 92.8777 91.5045C92.7775 91.6411 92.7345 91.8114 92.7577 91.9793C92.7809 92.1471 92.8685 92.2993 93.002 92.4037C93.1355 92.508 93.3044 92.5563 93.4729 92.5384Z" fill="white"/>
<path d="M83.9024 92.3761C84.0492 92.3752 84.1908 92.3221 84.302 92.2263C84.4131 92.1306 84.4866 91.9983 84.5092 91.8533C84.5318 91.7083 84.5021 91.56 84.4254 91.4349C84.3487 91.3099 84.2299 91.2162 84.0904 91.1706C83.1936 90.9783 82.2575 91.117 81.455 91.561C80.6524 92.0051 80.0377 92.7245 79.7241 93.5864C79.5303 94.2597 80.4291 94.8119 80.7699 94.0564C81.0401 93.4752 81.4914 92.9974 82.0562 92.6944C82.621 92.3915 83.2688 92.2798 83.9024 92.3761Z" fill="white"/>
<path d="M89.4996 108.881C88.9944 110.019 88.0978 110.938 86.9727 111.471C85.8476 112.004 84.5687 112.115 83.3684 111.785C82.1305 111.385 81.0903 110.531 80.4578 109.394C79.8254 108.258 79.6478 106.923 79.9609 105.661C80.1043 105.073 80.6307 104.869 81.2628 105.367C83.9077 107.451 85.8653 107.777 88.9908 107.829C89.4984 107.837 89.7957 108.292 89.4996 108.881Z" fill="white"/>
<path d="M4.49527 211.511C51.5246 212.083 185.429 210.904 214.031 210.571C215.873 210.549 217.335 208.47 214.084 208.456C177.306 208.266 59.2644 208.311 4.56342 208.815C2.40964 208.829 2.40376 211.485 4.49527 211.511Z" fill="#F8B6B2"/>
<path d="M95.1177 126.497C105.458 128.142 125.264 139.198 136.049 153.461C125.826 151.913 95.6758 151.649 87.0114 152.665C90.2714 148.696 93.8814 145.027 97.7979 141.703C96.2939 139.979 94.8792 138.638 93.6419 137.459C96.1176 135.931 100.188 133.494 101.984 132.655C99.9493 130.336 97.644 128.269 95.1177 126.497Z" fill="#F8B6B2"/>
<path d="M72.5092 137.988C71.1835 139.31 70.0527 140.813 69.151 142.453C72.7759 144.531 79.8059 148.421 84.0488 152.93C79.9974 153.461 77.3513 155.427 75.9413 161.39C75.335 163.948 74.4984 168.052 73.6689 172.659C65.9925 170.982 58.1891 169.95 50.3404 169.575C51.7175 166.048 53.5585 162.721 55.8147 159.681C56.2988 159.041 55.4012 158.228 54.8665 158.849C52.1414 161.977 50.0328 165.592 48.652 169.504C45.1363 169.297 41.6101 169.347 38.1016 169.654C37.3026 169.744 37.2932 170.939 38.1204 170.919C49.9691 170.533 61.8189 171.649 73.3869 174.242C72.206 180.977 71.0944 188.503 70.7455 193.773C52.533 193.595 22.9864 202.595 18.4075 191.739C8.15206 167.427 39.299 129.055 61.4606 125.696C59.59 128.285 58.2802 131.236 57.6148 134.36C60.0424 135.203 69.3249 137.413 72.5092 137.988Z" fill="#F8B6B2"/>
<path d="M86.1422 144.886C89.8669 135.59 89.7659 130.642 90.8281 126.086C90.8525 125.929 90.9364 125.787 91.0624 125.69C91.1885 125.592 91.347 125.547 91.5052 125.564C91.6635 125.58 91.8094 125.657 91.9128 125.778C92.0161 125.899 92.0691 126.055 92.0607 126.214C92.0983 131.714 89.2959 140.875 87.0199 146.143C86.9478 146.271 86.8467 146.379 86.7247 146.46C86.6028 146.542 86.4634 146.593 86.3179 146.61C86.1724 146.627 86.0249 146.61 85.8874 146.559C85.7499 146.509 85.6263 146.426 85.5265 146.319C78.1557 136.084 74.4732 132.386 66.0215 125.821C65.89 125.728 65.7997 125.588 65.7695 125.43C65.7394 125.271 65.7717 125.108 65.8598 124.973C65.9478 124.838 66.0848 124.742 66.2418 124.706C66.3988 124.67 66.5637 124.696 66.7018 124.779C74.5454 130.014 81.1746 136.87 86.1422 144.886Z" fill="#F8B6B2"/>
<path d="M47.2951 98.935C46.7299 87.4787 46.9061 75.8709 46.8544 64.39C46.8239 57.6032 46.516 39.3813 46.5924 30.4384C46.6053 28.8897 48.2022 29.7721 48.2186 30.5559C48.5276 45.7404 49.3278 83.6553 48.7474 98.9514C48.698 100.239 47.3526 100.22 47.2951 98.935Z" fill="#F8B6B2"/>
<path d="M114.6 125.263C113.822 125.448 113.611 124.199 114.365 123.978C122.594 121.356 129.495 115.665 133.635 108.086C143.189 91.0226 137.278 68.6611 121.756 57.3177C108.009 47.2703 78.4761 47.4747 68.9539 63.8977C68.3781 64.8906 66.8823 64.3477 67.3617 63.2914C74.8065 46.8825 105.023 44.5325 119.841 53.58C137.288 64.2373 145.381 87.2861 136.737 106.177C132.39 115.68 124.315 122.963 114.6 125.263Z" fill="#F8B6B2"/>
<path d="M47.4323 128.702C47.1338 126.169 47.3994 119.42 47.3888 115.471C47.3888 114.054 48.7189 114.574 48.7671 115.168C49.0497 119.675 49.0615 124.196 48.8023 128.705C48.7495 129.378 47.5098 129.368 47.4323 128.702Z" fill="#F8B6B2"/>
<path d="M43.2188 198.197C50.2323 197.374 64.7765 196.473 74.2212 196.317C74.2212 190.894 79.4076 159.892 82.7082 157.298C85.8689 154.814 145.832 154.352 148.307 159.061C151.562 165.26 146.183 203.666 143.212 204.68C138.38 206.325 46.5229 206.052 42.5149 205.738C40.4199 205.579 40.1215 198.557 43.2188 198.197ZM129.797 160.997C133.28 161.362 136.612 161.843 140.086 162.352C143.093 162.793 143.305 163.423 143.632 166.308C144.046 169.735 144.245 173.184 144.226 176.635C144.226 177.37 145.295 177.562 145.392 176.789C145.842 172.829 145.812 168.828 145.303 164.875C144.967 162.28 144.01 161.115 141.425 160.587C137.603 159.815 133.701 159.509 129.806 159.675C129.648 159.699 129.503 159.778 129.398 159.898C129.293 160.019 129.235 160.173 129.234 160.333C129.233 160.493 129.289 160.648 129.392 160.77C129.496 160.891 129.64 160.972 129.797 160.997ZM114.445 187.234C116.93 187.704 119.622 186.36 120.591 182.569C121.434 179.279 119.886 176.796 117.153 176.097C110.609 174.424 108.217 186.044 114.445 187.234Z" fill="white"/>
<path d="M46.5058 108.789C57.6801 97.7165 51.019 82.1936 58.1654 74.6818C59.5169 73.2249 61.3419 72.2953 63.315 72.0586C65.2881 71.8219 67.2811 72.2935 68.9389 73.3893C74.4438 64.437 85.6721 62.2703 95.2319 65.2489C105.651 68.4954 109.384 81.2148 101.02 85.3085C96.6372 87.4541 81.2506 87.6362 76.4401 86.7044C76.0551 90.6876 74.5653 94.4841 72.1385 97.666C71.8894 97.9656 71.5415 98.3804 71.1279 98.0185C70.6807 97.6154 70.1547 97.3097 69.5831 97.1206C69.0115 96.9315 68.4069 96.8631 67.8075 96.9199C67.2081 96.9767 66.6271 97.1573 66.1012 97.4504C65.5753 97.7435 65.116 98.1426 64.7524 98.6224C64.4181 99.1165 64.1846 99.6718 64.0655 100.256C63.9464 100.841 63.9439 101.443 64.0582 102.029C64.1725 102.614 64.4014 103.172 64.7316 103.668C65.0619 104.165 65.487 104.592 65.9826 104.924C67.4197 105.875 68.4442 105.736 70.054 105.655C70.5581 105.63 70.6521 106.052 70.6861 106.437C71.1832 112.035 71.7343 118.422 70.88 123.99C70.858 124.144 70.7766 124.284 70.6531 124.379C70.5295 124.475 70.3737 124.518 70.2186 124.5C70.0635 124.483 69.9214 124.405 69.8227 124.284C69.7239 124.163 69.6762 124.009 69.6898 123.853C69.678 122.345 69.7344 120.836 69.7838 119.326C61.9171 120.206 51.9566 115.605 46.4823 110.344C45.6152 109.521 46.2356 109.056 46.5058 108.789ZM88.8293 70.4882C90.7473 70.4538 92.6451 70.8848 94.36 71.7443C96.2647 72.6585 99.4983 74.9309 99.2809 77.3138C99.2163 78.0282 100.243 78.4653 100.51 77.7286C101.797 74.1777 98.2152 71.4036 95.8276 70.1005C93.7007 68.9399 91.318 68.3281 88.8951 68.3204C85.7955 68.3239 87.075 70.5623 88.8293 70.4882Z" fill="white"/>
</svg>
